<svg width="113" height="77" viewBox="0 0 113 77" fill="none" xmlns="http://www.w3.org/2000/svg">
<rect x="61.6597" y="66.3333" width="50.5185" height="10" fill="#FF4D00"/>
<path d="M1.54688 5H9.65625L15.2344 18.5938H15.5156L21.0938 5H29.2031V29H22.8281V15.125H22.6406L17.2969 28.8125H13.4531L8.10938 15.0312H7.92188V29H1.54688V5ZM37.0704 29.2813C35.922 29.2813 34.9063 29.0938 34.0235 28.7187C33.1485 28.3359 32.461 27.7578 31.961 26.9844C31.461 26.2109 31.211 25.2266 31.211 24.0312C31.211 23.0469 31.379 22.207 31.7149 21.5117C32.0509 20.8086 32.5196 20.2344 33.1212 19.7891C33.7227 19.3437 34.422 19.0039 35.2188 18.7695C36.0235 18.5352 36.8907 18.3828 37.8204 18.3125C38.8282 18.2344 39.6368 18.1406 40.2462 18.0312C40.8634 17.9141 41.3087 17.7539 41.5821 17.5508C41.8555 17.3398 41.9923 17.0625 41.9923 16.7187V16.6719C41.9923 16.2031 41.8126 15.8437 41.4532 15.5938C41.0938 15.3437 40.6329 15.2187 40.0704 15.2187C39.4532 15.2187 38.9493 15.3555 38.5587 15.6289C38.1759 15.8945 37.9454 16.3047 37.8673 16.8594H31.9141C31.9923 15.7656 32.3399 14.7578 32.9571 13.8359C33.5821 12.9062 34.4923 12.1641 35.6876 11.6094C36.8829 11.0469 38.3751 10.7656 40.1641 10.7656C41.4532 10.7656 42.6095 10.918 43.6329 11.2227C44.6563 11.5195 45.5274 11.9375 46.2462 12.4766C46.9649 13.0078 47.5118 13.6328 47.8868 14.3516C48.2696 15.0625 48.461 15.8359 48.461 16.6719V29H42.4141V26.4687H42.2735C41.9141 27.1406 41.4766 27.6836 40.961 28.0977C40.4532 28.5117 39.8712 28.8125 39.2149 29C38.5665 29.1875 37.8516 29.2813 37.0704 29.2813ZM39.1798 25.2031C39.672 25.2031 40.1329 25.1016 40.5626 24.8984C41.0001 24.6953 41.3555 24.4023 41.629 24.0195C41.9024 23.6367 42.0391 23.1719 42.0391 22.625V21.125C41.8673 21.1953 41.6837 21.2617 41.4884 21.3242C41.3009 21.3867 41.0977 21.4453 40.879 21.5C40.668 21.5547 40.4415 21.6055 40.1993 21.6523C39.9649 21.6992 39.7188 21.7422 39.461 21.7812C38.961 21.8594 38.5509 21.9883 38.2305 22.168C37.918 22.3398 37.6837 22.5547 37.5274 22.8125C37.379 23.0625 37.3048 23.3437 37.3048 23.6562C37.3048 24.1562 37.4805 24.5391 37.8321 24.8047C38.1837 25.0703 38.6329 25.2031 39.1798 25.2031ZM57.0343 24.7344L57.0812 17.0469H57.925L62.2843 11H69.55L62.2375 20.4219H60.4093L57.0343 24.7344ZM51.2218 29V5H57.6906V29H51.2218ZM62.3312 29L58.2062 21.875L62.425 17.2812L69.7375 29H62.3312ZM78.7883 29.3281C76.8664 29.3281 75.2102 28.9609 73.8196 28.2266C72.4368 27.4844 71.3704 26.4219 70.6204 25.0391C69.8782 23.6484 69.5071 21.9844 69.5071 20.0469C69.5071 18.1875 69.8821 16.5625 70.6321 15.1719C71.3821 13.7812 72.4407 12.6992 73.8079 11.9258C75.175 11.1523 76.7883 10.7656 78.6477 10.7656C80.0071 10.7656 81.2375 10.9766 82.3391 11.3984C83.4407 11.8203 84.3821 12.4336 85.1633 13.2383C85.9446 14.0352 86.5461 15.0039 86.968 16.1445C87.3899 17.2852 87.6008 18.5703 87.6008 20V21.5H71.5227V17.9375H81.6477C81.6399 17.4219 81.5071 16.9687 81.2493 16.5781C80.9993 16.1797 80.6594 15.8711 80.2297 15.6523C79.8079 15.4258 79.3274 15.3125 78.7883 15.3125C78.2649 15.3125 77.7844 15.4258 77.3469 15.6523C76.9094 15.8711 76.5579 16.1758 76.2922 16.5664C76.0344 16.957 75.8977 17.4141 75.8821 17.9375V21.7812C75.8821 22.3594 76.0032 22.875 76.2454 23.3281C76.4875 23.7813 76.8352 24.1367 77.2883 24.3945C77.7414 24.6523 78.2883 24.7813 78.9289 24.7813C79.3743 24.7813 79.7805 24.7187 80.1477 24.5937C80.5227 24.4687 80.843 24.2891 81.1086 24.0547C81.3743 23.8125 81.5696 23.5234 81.6946 23.1875H87.6008C87.3977 24.4375 86.9172 25.5234 86.1594 26.4453C85.4016 27.3594 84.3977 28.0703 83.1477 28.5781C81.9055 29.0781 80.4524 29.3281 78.7883 29.3281ZM31.6331 62.2813C30.4847 62.2813 29.4691 62.0938 28.5863 61.7187C27.7113 61.3359 27.0238 60.7578 26.5238 59.9844C26.0238 59.2109 25.7738 58.2266 25.7738 57.0312C25.7738 56.0469 25.9417 55.207 26.2777 54.5117C26.6136 53.8086 27.0823 53.2344 27.6839 52.7891C28.2855 52.3437 28.9847 52.0039 29.7816 51.7695C30.5863 51.5352 31.4534 51.3828 32.3831 51.3125C33.3909 51.2344 34.1995 51.1406 34.8089 51.0312C35.4261 50.9141 35.8714 50.7539 36.1448 50.5508C36.4183 50.3398 36.555 50.0625 36.555 49.7187V49.6719C36.555 49.2031 36.3753 48.8437 36.0159 48.5938C35.6566 48.3437 35.1956 48.2187 34.6331 48.2187C34.0159 48.2187 33.512 48.3555 33.1214 48.6289C32.7386 48.8945 32.5081 49.3047 32.43 49.8594H26.4769C26.555 48.7656 26.9027 47.7578 27.5198 46.8359C28.1448 45.9062 29.055 45.1641 30.2503 44.6094C31.4456 44.0469 32.9378 43.7656 34.7269 43.7656C36.0159 43.7656 37.1722 43.918 38.1956 44.2227C39.2191 44.5195 40.0902 44.9375 40.8089 45.4766C41.5277 46.0078 42.0745 46.6328 42.4495 47.3516C42.8323 48.0625 43.0238 48.8359 43.0238 49.6719V62H36.9769V59.4687H36.8363C36.4769 60.1406 36.0394 60.6836 35.5238 61.0977C35.0159 61.5117 34.4339 61.8125 33.7777 62C33.1292 62.1875 32.4144 62.2813 31.6331 62.2813ZM33.7425 58.2031C34.2347 58.2031 34.6956 58.1016 35.1253 57.8984C35.5628 57.6953 35.9183 57.4023 36.1917 57.0195C36.4652 56.6367 36.6019 56.1719 36.6019 55.625V54.125C36.43 54.1953 36.2464 54.2617 36.0511 54.3242C35.8636 54.3867 35.6605 54.4453 35.4417 54.5C35.2308 54.5547 35.0042 54.6055 34.762 54.6523C34.5277 54.6992 34.2816 54.7422 34.0238 54.7812C33.5238 54.8594 33.1136 54.9883 32.7933 55.168C32.4808 55.3398 32.2464 55.5547 32.0902 55.8125C31.9417 56.0625 31.8675 56.3437 31.8675 56.6562C31.8675 57.1562 32.0433 57.5391 32.3948 57.8047C32.7464 58.0703 33.1956 58.2031 33.7425 58.2031ZM64.8725 45.5C64.81 44.7187 64.5171 44.1094 63.9936 43.6719C63.478 43.2344 62.6929 43.0156 61.6382 43.0156C60.9663 43.0156 60.4155 43.0977 59.9858 43.2617C59.5639 43.418 59.2514 43.6328 59.0483 43.9062C58.8452 44.1797 58.7397 44.4922 58.7319 44.8437C58.7163 45.1328 58.7671 45.3945 58.8843 45.6289C59.0093 45.8555 59.2046 46.0625 59.4702 46.25C59.7358 46.4297 60.0757 46.5937 60.4897 46.7422C60.9038 46.8906 61.396 47.0234 61.9663 47.1406L63.935 47.5625C65.2632 47.8437 66.3999 48.2148 67.3452 48.6758C68.2905 49.1367 69.0639 49.6797 69.6655 50.3047C70.2671 50.9219 70.7085 51.6172 70.9897 52.3906C71.2788 53.1641 71.4272 54.0078 71.435 54.9219C71.4272 56.5 71.0327 57.8359 70.2514 58.9297C69.4702 60.0234 68.353 60.8555 66.8999 61.4258C65.4546 61.9961 63.7163 62.2813 61.685 62.2813C59.5991 62.2813 57.7788 61.9727 56.2241 61.3555C54.6772 60.7383 53.4741 59.7891 52.6147 58.5078C51.7632 57.2187 51.3335 55.5703 51.3257 53.5625H57.5132C57.5522 54.2969 57.7358 54.9141 58.0639 55.4141C58.3921 55.9141 58.853 56.293 59.4468 56.5508C60.0483 56.8086 60.7632 56.9375 61.5913 56.9375C62.2866 56.9375 62.8686 56.8516 63.3374 56.6797C63.8061 56.5078 64.1616 56.2695 64.4038 55.9648C64.646 55.6602 64.771 55.3125 64.7788 54.9219C64.771 54.5547 64.6499 54.2344 64.4155 53.9609C64.1889 53.6797 63.8139 53.4297 63.2905 53.2109C62.7671 52.9844 62.06 52.7734 61.1694 52.5781L58.7788 52.0625C56.6538 51.6016 54.978 50.832 53.7514 49.7539C52.5327 48.668 51.9272 47.1875 51.935 45.3125C51.9272 43.7891 52.3335 42.457 53.1538 41.3164C53.9819 40.168 55.1264 39.2734 56.5874 38.6328C58.0561 37.9922 59.7397 37.6719 61.6382 37.6719C63.5757 37.6719 65.2514 37.9961 66.6655 38.6445C68.0796 39.293 69.1694 40.207 69.935 41.3867C70.7085 42.5586 71.0991 43.9297 71.1069 45.5H64.8725ZM82.3023 62.3281C80.3804 62.3281 78.7242 61.9609 77.3336 61.2266C75.9507 60.4844 74.8843 59.4219 74.1343 58.0391C73.3922 56.6484 73.0211 54.9844 73.0211 53.0469C73.0211 51.1875 73.3961 49.5625 74.1461 48.1719C74.8961 46.7812 75.9547 45.6992 77.3218 44.9258C78.689 44.1523 80.3023 43.7656 82.1617 43.7656C83.5211 43.7656 84.7515 43.9766 85.8531 44.3984C86.9547 44.8203 87.8961 45.4336 88.6773 46.2383C89.4586 47.0352 90.0601 48.0039 90.482 49.1445C90.9039 50.2852 91.1148 51.5703 91.1148 53V54.5H75.0367V50.9375H85.1617C85.1539 50.4219 85.0211 49.9687 84.7632 49.5781C84.5132 49.1797 84.1734 48.8711 83.7437 48.6523C83.3218 48.4258 82.8414 48.3125 82.3023 48.3125C81.7789 48.3125 81.2984 48.4258 80.8609 48.6523C80.4234 48.8711 80.0718 49.1758 79.8062 49.5664C79.5484 49.957 79.4117 50.4141 79.3961 50.9375V54.7812C79.3961 55.3594 79.5172 55.875 79.7593 56.3281C80.0015 56.7813 80.3492 57.1367 80.8023 57.3945C81.2554 57.6523 81.8023 57.7813 82.4429 57.7813C82.8882 57.7813 83.2945 57.7187 83.6617 57.5937C84.0367 57.4687 84.357 57.2891 84.6226 57.0547C84.8882 56.8125 85.0836 56.5234 85.2086 56.1875H91.1148C90.9117 57.4375 90.4312 58.5234 89.6734 59.4453C88.9156 60.3594 87.9117 61.0703 86.6617 61.5781C85.4195 62.0781 83.9664 62.3281 82.3023 62.3281ZM99.8932 38V62H93.4245V38H99.8932ZM109.328 38V62H102.859V38H109.328Z" fill="black"/>
</svg>
