<svg width="42" height="42" viewBox="0 0 42 42" fill="none" xmlns="http://www.w3.org/2000/svg">
<circle cx="21" cy="21" r="21" fill="#F3F3F3"/>
<path d="M19.25 31.3833C14.2917 30.5083 10.5 26.1917 10.5 21C10.5 15.225 15.225 10.5 21 10.5C26.775 10.5 31.5 15.225 31.5 21C31.5 26.1917 27.7083 30.5083 22.75 31.3833L22.1667 30.9167H19.8333L19.25 31.3833Z" fill="url(#paint0_linear_702_2670)"/>
<path d="M25.0833 23.9166L25.55 20.9999H22.75V18.9583C22.75 18.1416 23.0417 17.4999 24.325 17.4999H25.6667V14.8166C24.9083 14.6999 24.0917 14.5833 23.3333 14.5833C20.9417 14.5833 19.25 16.0416 19.25 18.6666V20.9999H16.625V23.9166H19.25V31.3249C19.8333 31.4416 20.4167 31.4999 21 31.4999C21.5833 31.4999 22.1667 31.4416 22.75 31.3249V23.9166H25.0833Z" fill="white"/>
<defs>
<linearGradient id="paint0_linear_702_2670" x1="21" y1="30.7732" x2="21" y2="10.5" gradientUnits="userSpaceOnUse">
<stop stop-color="#0062E0"/>
<stop offset="1" stop-color="#19AFFF"/>
</linearGradient>
</defs>
</svg>
