<svg width="42" height="42" viewBox="0 0 42 42" fill="none" xmlns="http://www.w3.org/2000/svg">
<circle cx="21" cy="21" r="21" fill="#F3F3F3"/>
<path fill-rule="evenodd" clip-rule="evenodd" d="M30.52 21.2254C30.52 20.5223 30.4569 19.8461 30.3397 19.197H21V23.033H26.337C26.1071 24.2726 25.4084 25.3228 24.3581 26.026V28.5142H27.563C29.4382 26.7878 30.52 24.2455 30.52 21.2254Z" fill="#4285F4"/>
<path fill-rule="evenodd" clip-rule="evenodd" d="M20.9998 30.9165C23.6774 30.9165 25.9221 30.0286 27.5629 28.514L24.358 26.0258C23.47 26.6208 22.3341 26.9724 20.9998 26.9724C18.417 26.9724 16.2308 25.228 15.451 22.884H12.1379V25.4534C13.7697 28.6943 17.1233 30.9165 20.9998 30.9165Z" fill="#34A853"/>
<path fill-rule="evenodd" clip-rule="evenodd" d="M15.4511 22.884C15.2528 22.289 15.1401 21.6535 15.1401 20.9999C15.1401 20.3463 15.2528 19.7107 15.4511 19.1157V16.5464H12.138C11.4664 17.8851 11.0833 19.3997 11.0833 20.9999C11.0833 22.6001 11.4664 24.1146 12.138 25.4534L15.4511 22.884Z" fill="#FBBC05"/>
<path fill-rule="evenodd" clip-rule="evenodd" d="M20.9998 15.0274C22.4558 15.0274 23.763 15.5277 24.7907 16.5104L27.635 13.6661C25.9176 12.0659 23.6728 11.0833 20.9998 11.0833C17.1233 11.0833 13.7697 13.3055 12.1379 16.5464L15.451 19.1158C16.2308 16.7718 18.417 15.0274 20.9998 15.0274Z" fill="#EA4335"/>
</svg>
