<?xml version="1.0" encoding="UTF-8" standalone="no"?>
<!-- Created with Inkscape (http://www.inkscape.org/) -->

<svg
   version="1.1"
   id="svg2"
   width="4000"
   height="4000"
   viewBox="0 0 4000 4000"
   sodipodi:docname="image_photo_jpg_file.eps"
   xmlns:inkscape="http://www.inkscape.org/namespaces/inkscape"
   xmlns:sodipodi="http://sodipodi.sourceforge.net/DTD/sodipodi-0.dtd"
   xmlns="http://www.w3.org/2000/svg"
   xmlns:svg="http://www.w3.org/2000/svg">
  <defs
     id="defs6" />
  <sodipodi:namedview
     id="namedview4"
     pagecolor="#ffffff"
     bordercolor="#000000"
     borderopacity="0.25"
     inkscape:showpageshadow="2"
     inkscape:pageopacity="0.0"
     inkscape:pagecheckerboard="0"
     inkscape:deskcolor="#d1d1d1" />
  <g
     id="g8"
     inkscape:groupmode="layer"
     inkscape:label="ink_ext_XXXXXX"
     transform="matrix(1.3333333,0,0,-1.3333333,0,4000)">
    <g
       id="g10"
       transform="scale(0.1)">
      <path
         d="M 30000,0 H 0 V 30000 H 30000 V 0"
         style="fill:#ffffff;fill-opacity:1;fill-rule:nonzero;stroke:none"
         id="path12" />
      <path
         d="m 12780.2,13008.6 c 1798.9,-2300.2 1392.5,-5623 -907.7,-7421.8 C 9572.39,3788 6249.54,4194.4 4450.74,6494.5 c -1798.81,2300.1 -1392.41,5623 907.73,7421.8 2300.12,1798.8 5622.93,1392.4 7421.73,-907.7"
         style="fill:#dee6e8;fill-opacity:1;fill-rule:nonzero;stroke:none"
         id="path14" />
      <path
         d="M 25209.7,22569.2 C 27520.6,19614.4 26998.5,15345.6 24043.6,13034.8 21088.7,10724 16820,11246 14509.2,14200.9 c -2310.9,2954.9 -1788.8,7223.6 1166.1,9534.5 2954.9,2310.8 7223.6,1788.7 9534.4,-1166.2"
         style="fill:#dee6e8;fill-opacity:1;fill-rule:nonzero;stroke:none"
         id="path16" />
      <path
         d="m 25444.7,9949.6 c -284.7,272.5 -294.7,724.3 -22.1,1009.1 272.5,284.7 724.2,294.6 1009,22.1 284.8,-272.5 294.7,-724.3 22.2,-1009 -272.6,-284.8 -724.3,-294.7 -1009.1,-22.2"
         style="fill:#dee6e8;fill-opacity:1;fill-rule:nonzero;stroke:none"
         id="path18" />
      <path
         d="m 25226.5,13158 c -159.7,152.9 -165.3,406.3 -12.4,566 152.8,159.7 406.2,165.3 565.9,12.4 159.7,-152.8 165.3,-406.2 12.4,-565.9 -152.8,-159.7 -406.2,-165.3 -565.9,-12.5"
         style="fill:#dee6e8;fill-opacity:1;fill-rule:nonzero;stroke:none"
         id="path20" />
      <path
         d="m 4409.95,17310.7 c -303,250.1 -345.93,698.4 -95.87,1001.4 250.05,303 698.39,346 1001.4,95.9 303.01,-250 345.93,-698.4 95.87,-1001.4 -250.05,-303 -698.4,-345.9 -1001.4,-95.9"
         style="fill:#dee6e8;fill-opacity:1;fill-rule:nonzero;stroke:none"
         id="path22" />
      <path
         d="m 5026.23,14540.5 c -169.95,140.3 -194.02,391.7 -53.78,561.7 140.25,169.9 391.71,194 561.66,53.7 169.94,-140.2 194.01,-391.7 53.77,-561.6 -140.25,-170 -391.71,-194 -561.65,-53.8"
         style="fill:#dee6e8;fill-opacity:1;fill-rule:nonzero;stroke:none"
         id="path24" />
      <path
         d="M 23657.2,8694.3 H 7571.06 c -674.61,0 -1221.49,546.9 -1221.49,1221.5 v 8385.3 c 0,963.6 781.17,1744.7 1744.79,1744.7 H 23657.2 c 674.6,0 1221.5,-546.8 1221.5,-1221.4 V 9915.8 c 0,-674.6 -546.9,-1221.5 -1221.5,-1221.5"
         style="fill:#ffd48d;fill-opacity:1;fill-rule:nonzero;stroke:none"
         id="path26" />
      <path
         d="M 24883.2,17419.8 V 8849.1 c 0,-813.2 -594.9,-1472.3 -1328.8,-1472.3 H 7478.8 c -733.93,0 -1328.79,659.1 -1328.79,1472.4 v 11200.1 c 0,813.1 594.86,1472.4 1328.69,1472.4 h 3378.5 c 51.4,0 101.8,-6 150.6,-17.5 214.1,-50.3 364.2,-243.3 364.2,-463.2 v 0 c 0,-1322.5 1072.1,-2394.7 2394.6,-2394.7 h 10372.3 c 136.4,0 267.3,-57.5 356.8,-160.5 240,-276.5 387.5,-652.1 387.5,-1066"
         style="fill:#ffc971;fill-opacity:1;fill-rule:nonzero;stroke:none"
         id="path28" />
      <path
         d="m 22416.1,7816.4 -13801.24,2.9 c -360.94,0.1 -653.47,292.8 -653.4,653.7 l 1.94,9096.5 c 0.08,360.9 292.73,653.4 653.67,653.4 l 13801.33,-3 c 360.9,-0.1 653.4,-292.7 653.4,-653.7 l -2,-9096.4 c -0.1,-361 -292.7,-653.5 -653.7,-653.4"
         style="fill:#59818e;fill-opacity:1;fill-rule:nonzero;stroke:none"
         id="path30" />
      <path
         d="m 15714.6,9003.5 -2353.4,4299.4 c -289,527.8 -1046.8,528.7 -1337,1.4 L 9707.99,9095.1 c -20.89,-37.9 6.54,-84.4 49.85,-84.4 l 5956.76,-7.2"
         style="fill:#a5cea3;fill-opacity:1;fill-rule:nonzero;stroke:none"
         id="path32" />
      <path
         d="m 21325.3,9081.2 -3534.9,6457.7 c -288.9,527.8 -1046.8,528.7 -1336.9,1.5 L 12858.3,9007 l 8417,-10.1 c 43.3,-0.1 70.8,46.3 50,84.3"
         style="fill:#8fc28c;fill-opacity:1;fill-rule:nonzero;stroke:none"
         id="path34" />
      <path
         d="m 12633.5,15669.3 c 0,-673.8 -546.2,-1220.1 -1220,-1220.1 -673.9,0 -1220.1,546.3 -1220.1,1220.1 0,673.9 546.2,1220.1 1220.1,1220.1 673.8,0 1220,-546.2 1220,-1220.1"
         style="fill:#ffc971;fill-opacity:1;fill-rule:nonzero;stroke:none"
         id="path36" />
    </g>
  </g>
</svg>
