<svg width="148" height="117" viewBox="0 0 148 117" fill="none" xmlns="http://www.w3.org/2000/svg">
<path fill-rule="evenodd" clip-rule="evenodd" d="M73.0984 113.886C65.314 112.495 56.8606 101.851 48.9959 101.033C36.6123 99.7436 20.2198 118.464 13.8494 107.719C6.91002 96.0129 25.3241 84.2862 22.4715 70.9668C19.6748 57.9086 1.81634 56.7596 0.0989469 43.5145C-1.3225 32.5519 12.8723 25.1 22.4715 19.6938C31.0741 14.8488 41.4013 14.9026 51.2615 14.6999C58.7501 14.5459 68.5859 16.2243 75.9207 14.6999C85.8731 12.6314 89.6058 4.49297 99.7682 4.61828C109.386 4.73687 124.117 9.62182 124.238 19.2834C124.416 33.5202 112.073 42.8865 117.205 56.1582C123.515 72.4751 137.859 61.9605 146.598 77.1051C152.215 86.84 139.229 99.161 130.56 106.286C122.128 113.217 110.47 114.25 99.6686 115.679C90.7561 116.857 81.9488 115.468 73.0984 113.886Z" fill="#F4F4F4"/>
<g clip-path="url(#clip0_301_947)">
<path d="M74.2359 87.0001C92.2219 87.0001 106.803 83.8648 106.803 79.9971C106.803 76.1295 92.2219 72.9941 74.2359 72.9941C56.2498 72.9941 41.6692 76.1295 41.6692 79.9971C41.6692 83.8648 56.2498 87.0001 74.2359 87.0001Z" fill="#D7D7D7"/>
<path d="M106.803 79.9971C106.803 76.1296 92.222 72.9941 74.2359 72.9941C71.2438 72.9941 68.347 73.0813 65.5947 73.2439L71.6907 82.212C71.8608 82.4623 72.0593 82.6766 72.2772 82.857L76.4044 86.9843C93.3791 86.7442 106.803 83.7081 106.803 79.9971Z" fill="url(#paint0_linear_301_947)"/>
<path d="M109.93 35.6942C109.93 15.9809 93.9494 0 74.236 0C54.6085 0 38.7402 15.7015 38.5433 35.3281C38.3948 50.1514 47.2836 62.9145 60.0368 68.4499C62.1708 69.3762 63.9963 70.8924 65.3042 72.8165L71.6907 82.2119C72.9119 84.0084 75.5596 84.0084 76.7809 82.2119L83.1672 72.8166C84.471 70.8985 86.2869 69.3806 88.415 68.4586C101.074 62.9732 109.93 50.3689 109.93 35.6942Z" fill="url(#paint1_linear_301_947)"/>
<path d="M74.2358 81.7808C74.0291 81.7808 73.5105 81.7253 73.1616 81.2122L66.7753 71.8165C65.2735 69.6071 63.1882 67.8787 60.745 66.8185C48.2013 61.3738 40.1849 49.0201 40.322 35.346C40.4125 26.3259 43.9754 17.8817 50.3543 11.5684C56.7326 5.25574 65.2148 1.77881 74.2358 1.77881H74.236C92.9371 1.77881 108.152 16.9934 108.152 35.6945C108.152 49.225 100.127 61.4451 87.7079 66.8267C85.2787 67.8794 83.1999 69.6049 81.6963 71.8169L75.31 81.2124C74.9612 81.7253 74.4426 81.7808 74.2358 81.7808Z" fill="url(#paint2_linear_301_947)"/>
<path d="M74.236 58.1313C86.6276 58.1313 96.6731 48.0859 96.6731 35.6942C96.6731 23.3025 86.6276 13.2571 74.236 13.2571C61.8443 13.2571 51.7988 23.3025 51.7988 35.6942C51.7988 48.0859 61.8443 58.1313 74.236 58.1313Z" fill="url(#paint3_linear_301_947)"/>
<path d="M108.813 44.5813L87.4964 23.2643C84.1801 19.728 79.4664 17.5178 74.2358 17.5178C64.1972 17.5178 56.0593 25.6557 56.0593 35.6943C56.0593 40.9249 58.2695 45.6386 61.8058 48.9549L84.2716 71.4206C85.4259 70.1581 86.8341 69.1436 88.4151 68.4587C98.4268 64.1201 106.059 55.3282 108.813 44.5813Z" fill="url(#paint4_linear_301_947)"/>
<path d="M74.2358 53.8709C84.2745 53.8709 92.4124 45.733 92.4124 35.6943C92.4124 25.6557 84.2745 17.5178 74.2358 17.5178C64.1972 17.5178 56.0593 25.6557 56.0593 35.6943C56.0593 45.733 64.1972 53.8709 74.2358 53.8709Z" fill="url(#paint5_linear_301_947)"/>
</g>
<defs>
<linearGradient id="paint0_linear_301_947" x1="91.1463" y1="83.2378" x2="80.3752" y2="69.4952" gradientUnits="userSpaceOnUse">
<stop stop-color="#FFDA45" stop-opacity="0"/>
<stop offset="1" stop-color="#B53759"/>
</linearGradient>
<linearGradient id="paint1_linear_301_947" x1="52.6928" y1="14.15" x2="123.913" y2="85.3704" gradientUnits="userSpaceOnUse">
<stop stop-color="#F58229"/>
<stop offset="1" stop-color="#F54A48"/>
</linearGradient>
<linearGradient id="paint2_linear_301_947" x1="66.5812" y1="28.0596" x2="41.5535" y2="3.03195" gradientUnits="userSpaceOnUse">
<stop stop-color="#FF7044" stop-opacity="0"/>
<stop offset="1" stop-color="#FFA425"/>
</linearGradient>
<linearGradient id="paint3_linear_301_947" x1="87.7653" y1="49.2236" x2="43.0152" y2="4.47349" gradientUnits="userSpaceOnUse">
<stop stop-color="#FF7044"/>
<stop offset="1" stop-color="#F92814"/>
</linearGradient>
<linearGradient id="paint4_linear_301_947" x1="97.5785" y1="59.037" x2="77.7447" y2="39.2032" gradientUnits="userSpaceOnUse">
<stop stop-color="#F54A48" stop-opacity="0"/>
<stop offset="1" stop-color="#F54A48"/>
</linearGradient>
<linearGradient id="paint5_linear_301_947" x1="69.7862" y1="28.9087" x2="80.5271" y2="45.2886" gradientUnits="userSpaceOnUse">
<stop stop-color="#F9F7FC"/>
<stop offset="1" stop-color="#F0DDFC"/>
</linearGradient>
<clipPath id="clip0_301_947">
<rect width="87" height="87" fill="white" transform="translate(30.7358)"/>
</clipPath>
</defs>
</svg>
