<svg width="352" height="307" viewBox="0 0 352 307" fill="none" xmlns="http://www.w3.org/2000/svg">
<g clip-path="url(#clip0_33463_581)">
<path d="M170.751 307C265.054 307 341.501 303.538 341.501 299.269C341.501 294.999 265.054 291.537 170.751 291.537C76.4477 291.537 0 294.999 0 299.269C0 303.538 76.4477 307 170.751 307Z" fill="#EDE0C3"/>
<path d="M59.8335 174.851C70.3526 164.719 91.8205 183.91 104.294 197.003C110.034 203.019 113.861 207.748 113.861 207.748C115.785 209.586 117.422 211.241 118.814 212.752C119.571 213.569 120.247 214.335 120.84 215.05L103.25 222.005C97.7554 218.727 91.8308 215.122 87.9628 212.558C71.4987 201.63 49.8977 184.431 59.8335 174.861V174.851Z" fill="#CEBFA1"/>
<path d="M76.615 187.934C76.9117 187.566 77.4336 187.505 77.802 187.791C78.948 188.69 101.726 206.481 114.097 217.706L112.337 218.4C99.7303 207.063 77.0345 189.333 76.7582 189.119C76.3899 188.833 76.3285 188.302 76.615 187.934Z" fill="#B0967E"/>
<path d="M108.172 186.627C109.155 189.088 109.963 191.284 110.608 193.224C111.099 194.726 111.488 196.053 111.774 197.228L97.8578 202.723C93.4271 196.442 86.3359 186.279 82.5908 180.294C72.1331 163.545 59.5982 138.972 72.6141 134.355C86.3871 129.473 97.9806 155.813 103.905 172.88C106.637 180.723 108.162 186.616 108.162 186.616L108.172 186.627Z" fill="#EDE0C3"/>
<path d="M104.253 200.2C98.5127 185.779 82.2941 154.69 82.1099 154.353C81.895 153.944 82.0587 153.434 82.468 153.219C82.8876 153.005 83.389 153.168 83.6038 153.577C84.3304 154.976 100.089 185.166 105.819 199.587L104.243 200.21L104.253 200.2Z" fill="#CEBFA1"/>
<path d="M246.097 142.128C246.097 142.128 308.239 122.345 300.585 99.0379C292.143 73.3414 257.373 112.172 246.097 142.128Z" fill="#CEBFA1"/>
<path d="M239.906 148.174C253.915 132.119 276.795 113.142 277.081 112.897C277.306 112.713 277.623 112.744 277.808 112.969C277.992 113.183 277.961 113.51 277.736 113.694C277.45 113.929 254.416 133.038 240.51 149.042L239.906 148.174Z" fill="#B0967E"/>
<path d="M251.929 123.825C251.929 123.825 250.128 47.8287 280.754 54.978C304.167 60.442 283.067 103.297 251.929 123.825Z" fill="#EDE0C3"/>
<path d="M239.384 151.197C251.244 124.704 270.88 81.747 271.115 81.2363C271.238 80.981 271.535 80.8584 271.801 80.981C272.057 81.1036 272.18 81.4099 272.057 81.6653C271.822 82.1759 251.909 125.756 240.07 152.188L239.384 151.197Z" fill="#CEBFA1"/>
<path d="M234.268 264.145C247.14 246.211 259.225 225.365 265.907 211.496C274.635 193.378 277.859 178.997 275.485 168.753C275.331 168.079 274.646 167.65 273.97 167.814C273.295 167.967 272.865 168.651 273.029 169.325C277.183 187.229 262.735 221.015 231.137 264.104L234.268 264.145Z" fill="#CEBFA1"/>
<path d="M272.343 194.695C272.343 194.695 281.338 200.231 290.475 184.083C290.475 184.083 274.308 179.498 272.343 194.695Z" fill="#EDE0C3"/>
<path d="M268.066 203.264C268.066 203.264 274.113 194.613 258.458 184.604C258.458 184.604 252.973 200.466 268.066 203.264Z" fill="#EDE0C3"/>
<path d="M274.922 176.914C274.922 176.914 283.507 170.765 272.098 156.12C272.098 156.12 261.63 169.244 274.922 176.914Z" fill="#EDE0C3"/>
<path d="M259.982 220.78C259.982 220.78 266.562 229.032 280.642 216.909C280.642 216.909 266.981 207.135 259.982 220.78Z" fill="#EDE0C3"/>
<path d="M254.293 228.858C254.293 228.858 261.742 221.382 248.061 208.82C248.061 208.82 239.906 223.497 254.293 228.858Z" fill="#EDE0C3"/>
<path d="M247.611 240.685C247.611 240.685 254.037 249.06 268.342 237.213C268.342 237.213 254.866 227.183 247.611 240.685Z" fill="#EDE0C3"/>
<path d="M242.444 249.806C242.444 249.806 232.006 248.141 235.67 229.941C235.67 229.941 250.916 237.019 242.444 249.806Z" fill="#EDE0C3"/>
<path d="M255.122 24.5016V286.635C255.122 294.856 248.45 301.515 240.213 301.515H109.431C105.297 301.515 101.552 299.84 98.8501 297.124C96.1794 294.427 94.5217 290.73 94.5217 286.645V24.5016C94.5217 16.2799 101.193 9.62085 109.431 9.62085H240.213C242.648 9.62085 244.94 10.203 246.977 11.2345C251.817 13.6959 255.122 18.7106 255.122 24.4913V24.5016Z" fill="#221B22"/>
<path d="M94.1228 56.7754H94.5321V91.4085H94.1228C91.3395 91.4085 89.0781 89.1514 89.0781 86.3734V61.8105C89.0781 59.0325 91.3395 56.7754 94.1228 56.7754Z" fill="#564C54"/>
<path d="M255.46 82.3494H255.122V54.1506H255.46C257.731 54.1506 259.583 55.9992 259.583 58.2665V78.2334C259.583 80.5008 257.731 82.3494 255.46 82.3494Z" fill="#564C54"/>
<path d="M94.1228 96.1067H94.5321V130.74H94.1228C91.3395 130.74 89.0781 128.483 89.0781 125.705V101.142C89.0781 98.3638 91.3395 96.1067 94.1228 96.1067Z" fill="#564C54"/>
<path d="M247.683 23.6028V287.534C247.683 291.159 244.736 294.09 241.113 294.09H108.52C105.808 294.09 103.475 292.446 102.483 290.107C102.145 289.321 101.961 288.453 101.961 287.544V23.6028C101.961 19.9873 104.908 17.0459 108.53 17.0459H241.124C242.045 17.0459 242.904 17.2297 243.702 17.5668C246.046 18.5779 247.693 20.8963 247.693 23.6028H247.683Z" fill="white"/>
<path d="M236.714 149.032H115.98C115.499 149.032 115.11 149.42 115.11 149.9C115.11 150.38 115.499 150.768 115.98 150.768H236.714C237.195 150.768 237.583 150.38 237.583 149.9C237.583 149.42 237.195 149.032 236.714 149.032Z" fill="#EDE0C3"/>
<path d="M236.714 156.273H115.98C115.499 156.273 115.11 156.661 115.11 157.141C115.11 157.621 115.499 158.009 115.98 158.009H236.714C237.195 158.009 237.583 157.621 237.583 157.141C237.583 156.661 237.195 156.273 236.714 156.273Z" fill="#EDE0C3"/>
<path d="M236.714 59.8293H178.797C178.316 59.8293 177.927 59.4412 177.927 58.9611C177.927 58.4811 178.316 58.093 178.797 58.093H236.714C237.194 58.093 237.583 58.4811 237.583 58.9611C237.583 59.4412 237.194 59.8293 236.714 59.8293Z" fill="#EDE0C3"/>
<path d="M236.714 67.0807H178.797C178.316 67.0807 177.927 66.6926 177.927 66.2126C177.927 65.7326 178.316 65.3445 178.797 65.3445H236.714C237.194 65.3445 237.583 65.7326 237.583 66.2126C237.583 66.6926 237.194 67.0807 236.714 67.0807Z" fill="#EDE0C3"/>
<path d="M236.714 74.3322H178.797C178.316 74.3322 177.927 73.9441 177.927 73.4641C177.927 72.984 178.316 72.5959 178.797 72.5959H236.714C237.194 72.5959 237.583 72.984 237.583 73.4641C237.583 73.9441 237.194 74.3322 236.714 74.3322Z" fill="#EDE0C3"/>
<path d="M236.714 81.5834H178.797C178.316 81.5834 177.927 81.1953 177.927 80.7153C177.927 80.2353 178.316 79.8472 178.797 79.8472H236.714C237.194 79.8472 237.583 80.2353 237.583 80.7153C237.583 81.1953 237.194 81.5834 236.714 81.5834Z" fill="#EDE0C3"/>
<path d="M236.714 88.8349H178.797C178.316 88.8349 177.927 88.4468 177.927 87.9668C177.927 87.4867 178.316 87.0986 178.797 87.0986H236.714C237.194 87.0986 237.583 87.4867 237.583 87.9668C237.583 88.4468 237.194 88.8349 236.714 88.8349Z" fill="#EDE0C3"/>
<path d="M236.714 96.0864H178.797C178.316 96.0864 177.927 95.6983 177.927 95.2182C177.927 94.7382 178.316 94.3501 178.797 94.3501H236.714C237.194 94.3501 237.583 94.7382 237.583 95.2182C237.583 95.6983 237.194 96.0864 236.714 96.0864Z" fill="#EDE0C3"/>
<path d="M168.636 250.122H217.558V213.038H168.636V250.122Z" fill="#F77659"/>
<path d="M167.03 217.348H219.185V211.179H167.03V217.348Z" fill="#F77659"/>
<path d="M168.636 220.749H217.558V217.358H168.636V220.749Z" fill="#E33D15"/>
<path d="M190.954 250.153H195.241V211.179H190.954V250.153Z" fill="white"/>
<path d="M195.251 220.524H190.964V250.163H195.251V220.524Z" fill="#F0F0F0"/>
<path d="M195.251 217.348H190.964V220.739H195.251V217.348Z" fill="#EDE0C3"/>
<path d="M147.202 220.629L191.74 200.426L176.368 166.665L131.83 186.867L147.202 220.629Z" fill="#FF6C2C"/>
<path d="M132.142 191.453L179.624 169.915L177.067 164.299L129.585 185.837L132.142 191.453Z" fill="#FF6C2C"/>
<path d="M135.025 193.876L179.563 173.673L178.157 170.586L133.619 190.789L135.025 193.876Z" fill="#FF7337"/>
<path d="M167.532 211.435L171.436 209.665L155.28 174.183L151.377 175.954L167.532 211.435Z" fill="white"/>
<path d="M159.142 182.689L155.239 184.46L167.525 211.443L171.428 209.672L159.142 182.689Z" fill="#F0F0F0"/>
<path d="M157.833 179.81L153.929 181.58L155.335 184.667L159.238 182.897L157.833 179.81Z" fill="#EDE0C3"/>
<path d="M200.48 283.673C204.08 283.673 206.998 280.76 206.998 277.167C206.998 273.574 204.08 270.661 200.48 270.661C196.88 270.661 193.962 273.574 193.962 277.167C193.962 280.76 196.88 283.673 200.48 283.673Z" fill="#221B22"/>
<path d="M200.48 281.242C202.735 281.242 204.563 279.417 204.563 277.167C204.563 274.916 202.735 273.092 200.48 273.092C198.225 273.092 196.397 274.916 196.397 277.167C196.397 279.417 198.225 281.242 200.48 281.242Z" fill="#564C54"/>
<path d="M158.363 277.167C158.363 280.762 161.279 283.673 164.881 283.673C168.483 283.673 171.399 280.762 171.399 277.167C171.399 273.572 168.483 270.661 164.881 270.661C161.279 270.661 158.363 273.572 158.363 277.167Z" fill="#221B22"/>
<path d="M164.881 281.232C167.132 281.232 168.964 279.404 168.964 277.157C168.964 274.91 167.132 273.082 164.881 273.082C162.63 273.082 160.798 274.91 160.798 277.157C160.798 279.404 162.63 281.232 164.881 281.232Z" fill="#564C54"/>
<path d="M228.988 193.091C228.671 192.734 228.22 192.519 227.739 192.519H131.594L130.07 186.933C129.875 186.208 129.21 185.697 128.453 185.697H118.057V189.037H127.174L128.658 194.45C128.658 194.45 128.678 194.552 128.688 194.603L131.697 205.378L132.157 207.043L135.943 220.626L136.864 223.935L140.538 237.08L141.459 240.389L144.764 252.236C144.784 252.308 144.805 252.379 144.835 252.441L147.68 262.644C149.164 267.955 154.055 271.672 159.58 271.672H210.293C211.214 271.672 211.951 270.937 211.951 270.018C211.951 269.098 211.214 268.363 210.293 268.363H159.58C155.539 268.363 151.957 265.646 150.872 261.755L148.55 253.441H219.686C220.515 253.441 221.211 252.829 221.324 252.012L222.951 240.379L223.411 237.07L225.243 223.925L225.703 220.616L227.647 206.665C227.791 206.42 227.872 206.134 227.872 205.827C227.872 205.684 227.852 205.541 227.821 205.409L229.356 194.378C229.428 193.898 229.285 193.418 228.967 193.061L228.988 193.091ZM218.254 250.153H147.639L145.367 242.013C145.347 241.941 145.316 241.87 145.285 241.798L144.897 240.409H219.615L218.254 250.153ZM220.075 237.1H143.976L140.312 223.956H221.917L220.085 237.1H220.075ZM222.378 220.647H139.392L135.728 207.502H224.209L222.378 220.647ZM224.67 204.203H134.797L132.464 195.839H225.836L224.67 204.203Z" fill="#221B22"/>
<path d="M107.896 187.382C107.896 188.301 108.643 189.057 109.574 189.057H121.126V185.718H109.574C108.653 185.718 107.896 186.463 107.896 187.393V187.382Z" fill="#564C54"/>
<path d="M160.614 55.3149H124.37C119.261 55.3149 115.12 59.4486 115.12 64.5477V89.1208C115.12 94.2199 119.261 98.3536 124.37 98.3536H160.614C165.723 98.3536 169.864 94.2199 169.864 89.1208V64.5477C169.864 59.4486 165.723 55.3149 160.614 55.3149Z" fill="#EDE0C3"/>
<path d="M132.515 128.135L127.962 130.515L128.831 125.459L125.148 121.885L130.233 121.149L132.515 116.543L134.787 121.149L139.872 121.885L136.189 125.459L137.058 130.515L132.515 128.135Z" fill="#FF6C2C"/>
<path d="M155.712 128.135L151.169 130.515L152.039 125.459L148.355 121.885L153.441 121.149L155.712 116.543L157.984 121.149L163.07 121.885L159.396 125.459L160.266 130.515L155.712 128.135Z" fill="#FF6C2C"/>
<path d="M178.92 128.135L174.366 130.515L175.236 125.459L171.562 121.885L176.648 121.149L178.92 116.543L181.191 121.149L186.277 121.885L182.593 125.459L183.463 130.515L178.92 128.135Z" fill="#FF6C2C"/>
<path d="M202.127 128.135L197.574 130.515L198.443 125.459L194.76 121.885L199.845 121.149L202.127 116.543L204.399 121.149L209.484 121.885L205.801 125.459L206.67 130.515L202.127 128.135Z" fill="#FF6C2C"/>
<path d="M224.076 128.135L219.523 130.515L220.392 125.459L216.709 121.885L221.794 121.149L224.076 116.543L226.348 121.149L231.433 121.885L227.75 125.459L228.619 130.515L224.076 128.135Z" fill="#EDE0C3"/>
<path d="M223.841 137.246H128.054C120.482 137.246 114.312 131.097 114.312 123.529C114.312 115.961 120.472 109.813 128.054 109.813H223.841C231.413 109.813 237.583 115.961 237.583 123.529C237.583 131.097 231.423 137.246 223.841 137.246ZM128.054 111.151C121.218 111.151 115.652 116.707 115.652 123.529C115.652 130.352 121.218 135.908 128.054 135.908H223.841C230.676 135.908 236.243 130.352 236.243 123.529C236.243 116.707 230.676 111.151 223.841 111.151H128.054Z" fill="#EDE0C3"/>
<path d="M247.683 23.6028V37.5132H101.961V23.6028C101.961 19.9873 104.908 17.0459 108.53 17.0459H241.124C242.045 17.0459 242.904 17.2297 243.702 17.5668C246.046 18.5779 247.693 20.8963 247.693 23.6028H247.683Z" fill="#EDE0C3"/>
<path d="M212.912 15.0645H136.741C132.881 15.0645 129.752 18.1876 129.752 22.0401V23.1738C129.752 27.0263 132.881 30.1494 136.741 30.1494H212.912C216.772 30.1494 219.901 27.0263 219.901 23.1738V22.0401C219.901 18.1876 216.772 15.0645 212.912 15.0645Z" fill="#221B22"/>
<path d="M196.377 19.7625H145.787C144.838 19.7625 144.068 20.5307 144.068 21.4783V21.754C144.068 22.7017 144.838 23.4699 145.787 23.4699H196.377C197.326 23.4699 198.096 22.7017 198.096 21.754V21.4783C198.096 20.5307 197.326 19.7625 196.377 19.7625Z" fill="#564C54"/>
<path d="M211.255 21.4987C211.255 22.7243 210.252 23.7252 209.024 23.7252C207.796 23.7252 206.793 22.7243 206.793 21.4987C206.793 20.2731 207.796 19.2722 209.024 19.2722C210.252 19.2722 211.255 20.2731 211.255 21.4987Z" fill="#564C54"/>
<path d="M248.768 72.4427L260.77 99.7427C261.548 101.51 263.615 102.316 265.396 101.54L292.747 89.5601C294.517 88.7839 295.326 86.7208 294.548 84.9437L282.545 57.6437C281.768 55.8768 279.701 55.0699 277.92 55.8461L250.569 67.8263C248.798 68.6025 247.99 70.6656 248.768 72.4427ZM267.012 67.1726C265.917 67.9488 264.413 67.336 264.168 66.0083C264.045 65.3445 264.342 64.6397 264.894 64.2516C265.989 63.4754 267.493 64.0882 267.739 65.416C267.862 66.0798 267.565 66.7845 267.012 67.1726Z" fill="#6E6E6E"/>
<path d="M259.215 79.3468C257.895 76.3441 259.082 73.7805 261.65 72.6571C264.219 71.5336 266.91 72.4018 268.23 75.4045C269.56 78.4276 268.363 80.9707 265.795 82.0941C263.226 83.2176 260.545 82.3801 259.215 79.3468ZM271.719 68.5309L275.812 66.7334L271.668 88.743L267.575 90.5405L271.719 68.5309ZM264.792 76.9058C264.075 75.2819 263.339 75.0368 262.796 75.2717C262.254 75.5066 261.937 76.2215 262.653 77.8454C263.369 79.4693 264.116 79.7144 264.649 79.4795C265.181 79.2446 265.498 78.5297 264.792 76.9058ZM275.157 81.8899C273.837 78.8872 275.024 76.3236 277.593 75.2002C280.161 74.0767 282.852 74.9449 284.172 77.9475C285.502 80.9707 284.305 83.5138 281.737 84.6372C279.169 85.7607 276.488 84.913 275.157 81.8899ZM280.734 79.4489C280.018 77.825 279.281 77.5799 278.739 77.8148C278.207 78.0497 277.889 78.7646 278.595 80.3885C279.312 82.0124 280.049 82.2575 280.591 82.0226C281.123 81.7877 281.44 81.0728 280.734 79.4489Z" fill="white"/>
<path d="M268.087 52.1285C266.245 43.4677 261.548 33.6119 255.521 25.7477C255.398 25.5843 255.275 25.4209 255.142 25.2575V26.7894C261.405 35.103 265.631 44.7852 267.227 52.3021C267.882 55.3967 268.107 58.1033 267.902 60.2378C267.739 61.8719 267.34 63.1792 266.695 64.0678C266.449 64.4048 266.163 64.6908 265.846 64.9053C265.375 65.2219 264.812 65.3955 264.178 65.4364C264.137 65.7223 264.157 66.0287 264.26 66.3249C265.037 66.2739 265.723 66.039 266.337 65.6304C266.736 65.3649 267.084 65.0176 267.391 64.6091C268.209 63.5061 268.69 61.8822 268.823 59.8395C268.967 57.6947 268.731 55.0903 268.097 52.1183L268.087 52.1285ZM255.142 60.1459C245.954 48.799 233.03 15.4119 230.82 9.62097C230.799 9.58012 230.789 9.53926 230.768 9.49841C230.963 9.53926 231.157 9.58012 231.352 9.62097H234.616C233.183 9.14095 231.7 8.75284 230.155 8.4873C230.001 8.45666 229.837 8.51794 229.735 8.6405C229.633 8.76306 229.602 8.92647 229.663 9.07967C229.694 9.17159 229.766 9.35543 229.868 9.63118C231.802 14.7582 245.503 50.5352 255.132 61.5145C256.033 62.5358 256.892 63.3529 257.711 63.8942C257.967 64.0678 258.212 64.221 258.458 64.3742L259.45 63.9452C259.051 63.7103 258.632 63.455 258.202 63.169C257.25 62.5256 256.217 61.4941 255.132 60.1561L255.142 60.1459Z" fill="#F77659"/>
<path d="M104.55 255.382C104.212 255.382 103.946 255.086 103.967 254.749C104.038 253.278 104.294 249.407 105.102 245.577C106.515 238.837 108.858 235.415 112.091 235.415C115.325 235.415 117.617 238.837 118.906 245.588C119.633 249.418 119.817 253.288 119.868 254.759C119.878 255.096 119.612 255.372 119.275 255.382C118.947 255.382 118.671 255.127 118.661 254.79C118.528 249.213 117.156 236.62 112.091 236.62C107.026 236.62 105.42 249.213 105.174 254.8C105.164 255.127 104.888 255.382 104.55 255.372V255.382Z" fill="#221B22"/>
<path d="M132.843 301.812H89.0066L95.0438 253.115H126.806L132.843 301.812Z" fill="#2F2F2F"/>
<path d="M130.622 301.812H86.7861L92.8234 253.115H124.585L130.622 301.812Z" fill="#6E6E6E"/>
<path d="M108.704 285.787L115.018 289.096L113.81 282.079L118.916 277.116L111.856 276.094L108.704 269.721L105.553 276.094L98.5024 277.116L103.598 282.079L102.401 289.096L108.704 285.787Z" fill="#2F2F2F"/>
<path d="M101.726 257.047C102.551 257.047 103.22 256.379 103.22 255.556C103.22 254.732 102.551 254.065 101.726 254.065C100.901 254.065 100.232 254.732 100.232 255.556C100.232 256.379 100.901 257.047 101.726 257.047Z" fill="#2F2F2F"/>
<path d="M117.054 257.047C117.879 257.047 118.548 256.379 118.548 255.556C118.548 254.732 117.879 254.065 117.054 254.065C116.229 254.065 115.56 254.732 115.56 255.556C115.56 256.379 116.229 257.047 117.054 257.047Z" fill="#2F2F2F"/>
<path d="M101.767 255.382C101.419 255.382 101.142 255.076 101.163 254.728C101.235 253.207 101.501 249.203 102.329 245.24C103.782 238.265 106.218 234.731 109.564 234.731C112.91 234.731 115.284 238.275 116.614 245.251C117.371 249.213 117.555 253.217 117.607 254.739C117.617 255.086 117.341 255.382 116.993 255.382C116.655 255.382 116.369 255.117 116.358 254.78C116.215 249.009 114.803 235.997 109.564 235.997C104.325 235.997 102.657 249.019 102.411 254.8C102.401 255.137 102.115 255.403 101.767 255.392V255.382Z" fill="#221B22"/>
<path d="M70.1786 249.07C69.7897 249.06 69.493 248.733 69.5134 248.355C69.5953 246.691 69.8921 242.289 70.8028 237.938C72.399 230.278 75.0697 226.397 78.7432 226.397C82.4167 226.397 85.026 230.288 86.479 237.948C87.3079 242.299 87.5228 246.701 87.5739 248.366C87.5841 248.754 87.2772 249.07 86.8986 249.07C86.52 249.07 86.213 248.774 86.2028 248.407C86.0493 242.064 84.4939 227.776 78.7432 227.776C72.9925 227.776 71.1609 242.085 70.8846 248.427C70.8641 248.805 70.5572 249.091 70.1786 249.081V249.07Z" fill="#221B22"/>
<path d="M102.309 301.812H52.5171L59.3729 246.497H95.4529L102.309 301.812Z" fill="#E33D15"/>
<path d="M99.7916 301.812H50L56.8558 246.497H92.9358L99.7916 301.812Z" fill="#F77659"/>
<path d="M76.4819 287.687H76.3694C73.2689 287.687 70.3526 286.471 68.1629 284.275C65.9731 282.08 64.7759 279.169 64.7759 276.074V275.982C64.7861 269.599 69.9945 264.421 76.3898 264.421H76.5024C82.908 264.431 88.1061 269.65 88.0856 276.033V276.125C88.0856 279.22 86.868 282.131 84.668 284.316C82.4782 286.492 79.5722 287.697 76.4717 287.697L76.4819 287.687ZM76.4615 286.89H76.4819C79.3573 286.89 82.0689 285.777 84.1154 283.744C86.1619 281.712 87.2977 279.005 87.2977 276.115V276.023C87.308 270.069 82.468 265.218 76.5024 265.197H76.3898C70.4345 265.197 65.5842 270.028 65.574 275.972V276.064C65.574 278.944 66.6894 281.661 68.7256 283.704C70.7619 285.746 73.4735 286.88 76.3694 286.88H76.4615V286.89Z" fill="#E33D15"/>
<path d="M76.6355 283.765C76.5332 283.765 76.4309 283.724 76.3592 283.652L70.7416 278.015C69.8718 277.136 69.3909 275.982 69.3909 274.736C69.3909 273.5 69.8718 272.336 70.7518 271.468C71.5192 270.702 72.5016 270.334 73.5044 270.436C74.6402 270.549 75.7453 271.253 76.6662 272.428C77.5871 271.253 78.7025 270.559 79.8383 270.447C80.8411 270.355 81.8132 270.722 82.5806 271.499C83.4504 272.367 83.9313 273.531 83.9211 274.777C83.9211 276.013 83.4402 277.177 82.5602 278.045L76.9118 283.652C76.8402 283.724 76.7378 283.765 76.6355 283.765Z" fill="#E33D15"/>
<path d="M66.9757 250.97C67.9138 250.97 68.6743 250.211 68.6743 249.275C68.6743 248.338 67.9138 247.579 66.9757 247.579C66.0376 247.579 65.2771 248.338 65.2771 249.275C65.2771 250.211 66.0376 250.97 66.9757 250.97Z" fill="#E33D15"/>
<path d="M86.0696 249.275C86.0696 250.214 85.3124 250.97 84.371 250.97C83.4296 250.97 82.6724 250.214 82.6724 249.275C82.6724 248.335 83.4296 247.579 84.371 247.579C85.3124 247.579 86.0696 248.335 86.0696 249.275Z" fill="#E33D15"/>
<path d="M67.0166 249.07C66.6176 249.06 66.3106 248.723 66.331 248.325C66.4129 246.599 66.7199 242.054 67.6613 237.55C69.319 229.635 72.0817 225.611 75.8678 225.611C79.6538 225.611 82.3655 229.635 83.8697 237.56C84.7292 242.064 84.9441 246.609 84.9952 248.335C85.0055 248.733 84.6882 249.06 84.2892 249.06C83.9003 249.06 83.5831 248.754 83.5729 248.366C83.4092 241.809 81.8027 227.03 75.8576 227.03C69.9124 227.03 68.0194 241.829 67.7329 248.386C67.7124 248.774 67.3952 249.07 67.0064 249.06L67.0166 249.07Z" fill="#221B22"/>
<path d="M324.986 33.1522L321.466 33.0501C321.384 33.0501 321.302 33.0092 321.251 32.9582C321.19 32.8969 321.169 32.8152 321.169 32.7335L321.241 30.3742C319.768 30.221 318.274 29.8738 317.005 29.4039C316.237 29.118 315.572 28.7911 315.02 28.4235C314.887 28.3418 314.846 28.1681 314.907 28.0354L316.923 23.7969C316.964 23.7152 317.035 23.6539 317.117 23.6335C317.199 23.613 317.291 23.6232 317.373 23.6641C318.366 24.2871 319.604 24.7978 320.852 25.094C321.579 25.2676 322.285 25.3595 322.94 25.3799C323.697 25.4003 324.249 25.3391 324.587 25.2063C324.874 25.0837 324.925 24.9408 324.925 24.7978C324.935 24.2973 323.871 23.9909 322.674 23.7049L322.254 23.6028C320.893 23.276 319.348 22.9185 318.048 22.173C317.087 21.6214 316.411 20.9474 315.981 20.1201C315.603 19.395 315.429 18.537 315.449 17.5872C315.541 14.4722 317.946 12.2457 321.763 11.735L321.834 9.28384C321.834 9.20214 321.875 9.12043 321.927 9.06937C321.988 9.0183 322.07 8.97745 322.152 8.98766L325.672 9.08979C325.846 9.08979 325.979 9.23278 325.968 9.4064L325.897 11.7963C326.48 11.878 327.053 11.9904 327.606 12.1231C328.813 12.4295 329.877 12.8483 330.778 13.3896C330.911 13.4713 330.962 13.6347 330.901 13.7777L329.008 17.9957C328.977 18.0775 328.905 18.1387 328.823 18.1592C328.741 18.1898 328.649 18.1796 328.578 18.1387C328.465 18.0775 328.342 18.0162 328.23 17.9549C326.715 17.1889 325.252 16.7804 323.881 16.7395C323.779 16.7395 323.687 16.7395 323.594 16.7395C322.827 16.7395 321.916 16.8825 321.896 17.4749C321.896 17.5668 321.916 17.6893 322.131 17.8323C322.571 18.1387 323.472 18.343 324.526 18.5881C325.201 18.7413 325.979 18.9149 326.726 19.1498C328.117 19.5788 330.072 20.3652 330.931 22.2036C331.248 22.8879 331.402 23.6641 331.371 24.5322C331.289 27.5247 328.997 29.7308 325.375 30.3333L325.303 32.8458C325.303 32.9275 325.262 33.0092 325.211 33.0603C325.15 33.1113 325.078 33.142 324.996 33.142L324.986 33.1522ZM321.783 32.4475L324.689 32.5292L324.761 30.0678C324.761 29.9146 324.874 29.792 325.027 29.7716C328.527 29.261 330.665 27.3 330.747 24.522C330.768 23.756 330.645 23.0615 330.368 22.4691C329.795 21.2436 328.578 20.3754 326.541 19.7422C325.815 19.5175 325.058 19.3439 324.382 19.1907C323.267 18.9354 322.315 18.7209 321.773 18.343C321.435 18.1081 321.261 17.8119 321.272 17.4647C321.292 16.8621 321.701 16.1471 323.584 16.1267C323.687 16.1267 323.789 16.1267 323.901 16.1267C325.365 16.1676 326.92 16.5965 328.516 17.4136C328.537 17.4238 328.557 17.434 328.578 17.4442L330.225 13.7879C329.427 13.3487 328.496 12.9913 327.462 12.7257C326.848 12.5725 326.204 12.4499 325.549 12.3682C325.395 12.3478 325.273 12.215 325.273 12.0516L325.344 9.69237L322.438 9.61067L322.367 12.021C322.367 12.1742 322.244 12.307 322.09 12.3172C318.396 12.7257 316.135 14.7071 316.053 17.6076C316.033 18.4553 316.186 19.2009 316.514 19.8341C316.882 20.5491 317.486 21.1414 318.335 21.6317C319.553 22.3262 321.047 22.6836 322.367 23.0002L322.786 23.1024C324.075 23.419 325.549 23.7662 325.518 24.8182C325.518 25.1246 325.375 25.5331 324.802 25.7782C324.382 25.9519 323.758 26.0234 322.899 26.0029C322.193 25.9825 321.446 25.8804 320.678 25.6965C319.491 25.4208 318.304 24.951 317.312 24.3688L315.552 28.0456C316.022 28.3315 316.575 28.5869 317.189 28.8218C318.488 29.312 320.034 29.6491 321.548 29.7818C321.712 29.792 321.834 29.935 321.834 30.0984L321.773 32.4373L321.783 32.4475Z" fill="#CEBFA1"/>
<path d="M154.123 1.02128C154.123 1.21533 154.287 1.37875 154.481 1.37875H242.154C242.348 1.37875 242.512 1.21533 242.512 1.02128C242.512 0.82723 242.348 0.663818 242.154 0.663818H154.481C154.287 0.663818 154.123 0.82723 154.123 1.02128Z" fill="#CEBFA1"/>
<path d="M41.6771 160.297C41.6771 160.103 41.5134 159.939 41.319 159.939H11.6036C11.4297 159.939 11.266 160.062 11.2353 160.236C11.1943 160.46 11.3683 160.654 11.5832 160.654H41.319C41.5134 160.654 41.6771 160.491 41.6771 160.297Z" fill="#CEBFA1"/>
<path d="M26.3795 32.8458C26.3795 32.8458 26.2874 32.8458 26.2465 32.8151L21.4884 30.7112C20.1581 31.2627 18.7358 31.5385 17.2726 31.5385H17.16C14.1926 31.5385 11.4093 30.3742 9.32187 28.2805C7.23443 26.1867 6.08838 23.3985 6.08838 20.4469V20.3652C6.09861 14.2679 11.0819 9.31445 17.1805 9.31445H17.293C23.4121 9.32467 28.3749 14.3087 28.3647 20.4163V20.5082C28.3647 23.0819 27.5051 25.482 25.8884 27.4532L26.707 32.4781C26.7275 32.6007 26.6763 32.7232 26.5842 32.7947C26.5228 32.8458 26.4512 32.8662 26.3795 32.8662V32.8458ZM21.4884 30.0167C21.4884 30.0167 21.5805 30.0167 21.6214 30.0473L25.9498 31.9572L25.2028 27.3919C25.1823 27.3 25.213 27.1978 25.2744 27.1264C26.8502 25.2471 27.6893 22.9594 27.6995 20.4877V20.3958C27.7098 14.656 23.0437 9.97831 17.293 9.9681H17.1805C11.44 9.9681 6.76373 14.6253 6.7535 20.355V20.4367C6.7535 23.2147 7.82791 25.8293 9.79256 27.8004C11.7572 29.7716 14.3768 30.8542 17.16 30.8644H17.2726C18.6949 30.8644 20.0661 30.5886 21.3656 30.0371C21.4065 30.0167 21.4474 30.0065 21.4986 30.0065L21.4884 30.0167Z" fill="#CEBFA1"/>
<path d="M17.4159 28.0966C17.3136 28.0966 17.2112 28.0558 17.1396 27.9843L11.5526 22.3772C10.6829 21.5091 10.2122 20.355 10.2122 19.1192C10.2122 17.8834 10.6931 16.7293 11.5629 15.8714C12.3303 15.1054 13.3024 14.7479 14.2949 14.8398C15.4308 14.9522 16.5256 15.6467 17.4363 16.8212C18.3573 15.6569 19.4624 14.9624 20.588 14.85C21.5908 14.7581 22.5526 15.1258 23.3201 15.8918C24.1898 16.7599 24.6605 17.914 24.6605 19.1498C24.6605 20.3856 24.1796 21.5397 23.3098 22.3976L17.6922 27.9741C17.6205 28.0456 17.5182 28.0864 17.4159 28.0864V28.0966ZM13.9675 15.6058C13.2922 15.6058 12.6577 15.8816 12.1154 16.4229C11.3991 17.1378 11.0001 18.0979 11.0001 19.1192C11.0001 20.1405 11.3889 21.1006 12.1052 21.8155L17.4159 27.1366L22.747 21.8359C23.4633 21.121 23.8624 20.1609 23.8726 19.1396C23.8726 18.1183 23.4838 17.1582 22.7675 16.4433C22.1638 15.8407 21.4373 15.5548 20.6698 15.6262C19.6363 15.7284 18.6029 16.4637 17.7638 17.6995C17.6922 17.8119 17.5694 17.8732 17.4363 17.8732C17.3033 17.8732 17.1805 17.8119 17.1089 17.6995C16.2698 16.4535 15.2466 15.7182 14.2131 15.616C14.1312 15.616 14.0494 15.6058 13.9675 15.6058Z" fill="#CEBFA1"/>
<path d="M32.2532 137.726C30.1862 137.726 28.4978 139.411 28.4978 141.474C28.4978 143.537 30.1862 145.222 32.2532 145.222C34.3201 145.222 36.0085 143.537 36.0085 141.474C36.0085 139.411 34.3304 137.726 32.2532 137.726ZM32.2532 144.517C30.575 144.517 29.2038 143.149 29.2038 141.474C29.2038 139.799 30.575 138.43 32.2532 138.43C33.9313 138.43 35.3025 139.799 35.3025 141.474C35.3025 143.149 33.9313 144.517 32.2532 144.517Z" fill="#CEBFA1"/>
<path d="M337.746 40.0972C335.679 40.0972 333.991 41.7824 333.991 43.8454C333.991 45.9085 335.679 47.5937 337.746 47.5937C339.813 47.5937 341.501 45.9085 341.501 43.8454C341.501 41.7824 339.823 40.0972 337.746 40.0972ZM337.746 46.889C336.068 46.889 334.697 45.5204 334.697 43.8454C334.697 42.1705 336.068 40.8019 337.746 40.8019C339.424 40.8019 340.795 42.1705 340.795 43.8454C340.795 45.5204 339.424 46.889 337.746 46.889Z" fill="#CEBFA1"/>
</g>
<defs>
<clipPath id="clip0_33463_581">
<rect width="352" height="307" fill="white"/>
</clipPath>
</defs>
</svg>
